<mxfile host="app.diagrams.net" agent="Mozilla/5.0 (Windows NT 10.0; Win64; x64) AppleWebKit/537.36 (KHTML, like Gecko) Chrome/129.0.0.0 Safari/537.36 Edg/129.0.0.0" version="24.7.17">
  <diagram name="Pagina-1" id="v9O8Yk8y65x4BX1Rfp6r">
    <mxGraphModel dx="992" dy="538" grid="1" gridSize="10" guides="1" tooltips="1" connect="1" arrows="1" fold="1" page="1" pageScale="1" pageWidth="827" pageHeight="1169" math="0" shadow="0">
      <root>
        <mxCell id="0" />
        <mxCell id="1" parent="0" />
        <mxCell id="l84vfNKPHoAJJHxE9Hui-3" value="" style="ellipse;html=1;shape=startState;fillColor=#000000;strokeColor=#000000;" vertex="1" parent="1">
          <mxGeometry x="60" y="350" width="30" height="30" as="geometry" />
        </mxCell>
        <mxCell id="l84vfNKPHoAJJHxE9Hui-4" value="" style="edgeStyle=orthogonalEdgeStyle;html=1;verticalAlign=bottom;endArrow=open;endSize=8;strokeColor=#33001A;rounded=0;" edge="1" source="l84vfNKPHoAJJHxE9Hui-3" parent="1">
          <mxGeometry relative="1" as="geometry">
            <mxPoint x="150" y="365" as="targetPoint" />
          </mxGeometry>
        </mxCell>
        <mxCell id="l84vfNKPHoAJJHxE9Hui-5" value="utente non registrato" style="rounded=1;whiteSpace=wrap;html=1;" vertex="1" parent="1">
          <mxGeometry x="150" y="335" width="120" height="60" as="geometry" />
        </mxCell>
        <mxCell id="l84vfNKPHoAJJHxE9Hui-7" value="registrazione" style="html=1;verticalAlign=bottom;endArrow=block;curved=0;rounded=0;" edge="1" parent="1">
          <mxGeometry width="80" relative="1" as="geometry">
            <mxPoint x="270" y="364.52" as="sourcePoint" />
            <mxPoint x="350" y="364.52" as="targetPoint" />
          </mxGeometry>
        </mxCell>
        <mxCell id="l84vfNKPHoAJJHxE9Hui-8" value="utente registrato" style="rounded=1;whiteSpace=wrap;html=1;" vertex="1" parent="1">
          <mxGeometry x="350" y="335" width="120" height="60" as="geometry" />
        </mxCell>
        <mxCell id="l84vfNKPHoAJJHxE9Hui-9" value="login" style="html=1;verticalAlign=bottom;endArrow=block;curved=0;rounded=0;exitX=1;exitY=0.25;exitDx=0;exitDy=0;entryX=0;entryY=0.25;entryDx=0;entryDy=0;" edge="1" parent="1" source="l84vfNKPHoAJJHxE9Hui-8" target="l84vfNKPHoAJJHxE9Hui-10">
          <mxGeometry width="80" relative="1" as="geometry">
            <mxPoint x="470" y="364.52" as="sourcePoint" />
            <mxPoint x="550" y="364.52" as="targetPoint" />
          </mxGeometry>
        </mxCell>
        <mxCell id="l84vfNKPHoAJJHxE9Hui-10" value="utente loggato" style="rounded=1;whiteSpace=wrap;html=1;" vertex="1" parent="1">
          <mxGeometry x="550" y="335" width="120" height="60" as="geometry" />
        </mxCell>
        <mxCell id="l84vfNKPHoAJJHxE9Hui-11" value="prenotazione" style="html=1;verticalAlign=bottom;endArrow=block;curved=0;rounded=0;exitX=0.5;exitY=1;exitDx=0;exitDy=0;entryX=0.425;entryY=-0.002;entryDx=0;entryDy=0;entryPerimeter=0;" edge="1" parent="1" source="l84vfNKPHoAJJHxE9Hui-10" target="l84vfNKPHoAJJHxE9Hui-12">
          <mxGeometry width="80" relative="1" as="geometry">
            <mxPoint x="570" y="470" as="sourcePoint" />
            <mxPoint x="610" y="480" as="targetPoint" />
          </mxGeometry>
        </mxCell>
        <mxCell id="l84vfNKPHoAJJHxE9Hui-12" value="utente loggato con libri prenotati" style="rounded=1;whiteSpace=wrap;html=1;" vertex="1" parent="1">
          <mxGeometry x="560" y="460" width="120" height="60" as="geometry" />
        </mxCell>
        <mxCell id="l84vfNKPHoAJJHxE9Hui-13" value="disconnessione" style="html=1;verticalAlign=bottom;endArrow=block;curved=0;rounded=0;entryX=1;entryY=0.75;entryDx=0;entryDy=0;exitX=0;exitY=0.75;exitDx=0;exitDy=0;" edge="1" parent="1" source="l84vfNKPHoAJJHxE9Hui-10" target="l84vfNKPHoAJJHxE9Hui-8">
          <mxGeometry width="80" relative="1" as="geometry">
            <mxPoint x="380" y="560" as="sourcePoint" />
            <mxPoint x="460" y="560" as="targetPoint" />
          </mxGeometry>
        </mxCell>
        <mxCell id="l84vfNKPHoAJJHxE9Hui-14" value="disconnessione" style="html=1;verticalAlign=bottom;endArrow=block;curved=0;rounded=0;exitX=0;exitY=0.75;exitDx=0;exitDy=0;entryX=1;entryY=0.75;entryDx=0;entryDy=0;" edge="1" parent="1" source="l84vfNKPHoAJJHxE9Hui-12" target="l84vfNKPHoAJJHxE9Hui-15">
          <mxGeometry width="80" relative="1" as="geometry">
            <mxPoint x="380" y="560" as="sourcePoint" />
            <mxPoint x="460" y="470" as="targetPoint" />
          </mxGeometry>
        </mxCell>
        <mxCell id="l84vfNKPHoAJJHxE9Hui-15" value="utente registrato con libri prenotati" style="rounded=1;whiteSpace=wrap;html=1;" vertex="1" parent="1">
          <mxGeometry x="340" y="460" width="120" height="60" as="geometry" />
        </mxCell>
        <mxCell id="l84vfNKPHoAJJHxE9Hui-16" value="scadono le prenotazioni" style="html=1;verticalAlign=bottom;endArrow=block;curved=0;rounded=0;exitX=0.5;exitY=0;exitDx=0;exitDy=0;" edge="1" parent="1" source="l84vfNKPHoAJJHxE9Hui-15">
          <mxGeometry width="80" relative="1" as="geometry">
            <mxPoint x="380" y="560" as="sourcePoint" />
            <mxPoint x="400" y="397" as="targetPoint" />
          </mxGeometry>
        </mxCell>
        <mxCell id="l84vfNKPHoAJJHxE9Hui-20" value="login" style="html=1;verticalAlign=bottom;endArrow=block;curved=0;rounded=0;" edge="1" parent="1">
          <mxGeometry width="80" relative="1" as="geometry">
            <mxPoint x="460" y="470" as="sourcePoint" />
            <mxPoint x="560" y="470" as="targetPoint" />
          </mxGeometry>
        </mxCell>
        <mxCell id="l84vfNKPHoAJJHxE9Hui-21" value="" style="ellipse;html=1;shape=startState;fillColor=#000000;strokeColor=#000000;" vertex="1" parent="1">
          <mxGeometry x="40" y="660" width="30" height="30" as="geometry" />
        </mxCell>
        <mxCell id="l84vfNKPHoAJJHxE9Hui-24" value="" style="edgeStyle=orthogonalEdgeStyle;html=1;verticalAlign=bottom;endArrow=open;endSize=8;strokeColor=#33001A;rounded=0;" edge="1" parent="1">
          <mxGeometry relative="1" as="geometry">
            <mxPoint x="130" y="674.52" as="targetPoint" />
            <mxPoint x="70" y="674.52" as="sourcePoint" />
          </mxGeometry>
        </mxCell>
        <mxCell id="l84vfNKPHoAJJHxE9Hui-25" value="admin registrato" style="rounded=1;whiteSpace=wrap;html=1;" vertex="1" parent="1">
          <mxGeometry x="130" y="645" width="120" height="60" as="geometry" />
        </mxCell>
        <mxCell id="l84vfNKPHoAJJHxE9Hui-26" value="disconnessione" style="html=1;verticalAlign=bottom;endArrow=block;curved=0;rounded=0;entryX=1;entryY=0.75;entryDx=0;entryDy=0;" edge="1" parent="1" target="l84vfNKPHoAJJHxE9Hui-25">
          <mxGeometry width="80" relative="1" as="geometry">
            <mxPoint x="340" y="690" as="sourcePoint" />
            <mxPoint x="460" y="560" as="targetPoint" />
          </mxGeometry>
        </mxCell>
        <mxCell id="l84vfNKPHoAJJHxE9Hui-27" value="login" style="html=1;verticalAlign=bottom;endArrow=block;curved=0;rounded=0;" edge="1" parent="1">
          <mxGeometry width="80" relative="1" as="geometry">
            <mxPoint x="250" y="660" as="sourcePoint" />
            <mxPoint x="340" y="660" as="targetPoint" />
          </mxGeometry>
        </mxCell>
        <mxCell id="l84vfNKPHoAJJHxE9Hui-29" value="admin loggato" style="rounded=1;whiteSpace=wrap;html=1;" vertex="1" parent="1">
          <mxGeometry x="340" y="645" width="120" height="60" as="geometry" />
        </mxCell>
        <mxCell id="l84vfNKPHoAJJHxE9Hui-30" value="" style="ellipse;html=1;shape=startState;fillColor=#000000;strokeColor=#000000;" vertex="1" parent="1">
          <mxGeometry x="40" y="770" width="30" height="30" as="geometry" />
        </mxCell>
        <mxCell id="l84vfNKPHoAJJHxE9Hui-32" value="" style="endArrow=classic;html=1;rounded=0;" edge="1" parent="1">
          <mxGeometry width="50" height="50" relative="1" as="geometry">
            <mxPoint x="70" y="784.52" as="sourcePoint" />
            <mxPoint x="130" y="784.52" as="targetPoint" />
          </mxGeometry>
        </mxCell>
        <mxCell id="l84vfNKPHoAJJHxE9Hui-33" value="libro disponibile" style="rounded=1;whiteSpace=wrap;html=1;" vertex="1" parent="1">
          <mxGeometry x="130" y="755" width="120" height="60" as="geometry" />
        </mxCell>
        <mxCell id="l84vfNKPHoAJJHxE9Hui-34" value="prenotazione" style="html=1;verticalAlign=bottom;endArrow=block;curved=0;rounded=0;exitX=0.75;exitY=1;exitDx=0;exitDy=0;entryX=0.835;entryY=0.011;entryDx=0;entryDy=0;entryPerimeter=0;" edge="1" parent="1" source="l84vfNKPHoAJJHxE9Hui-33" target="l84vfNKPHoAJJHxE9Hui-35">
          <mxGeometry width="80" relative="1" as="geometry">
            <mxPoint x="180" y="815" as="sourcePoint" />
            <mxPoint x="180" y="860" as="targetPoint" />
          </mxGeometry>
        </mxCell>
        <mxCell id="l84vfNKPHoAJJHxE9Hui-35" value="libro prenotato" style="rounded=1;whiteSpace=wrap;html=1;" vertex="1" parent="1">
          <mxGeometry x="120" y="860" width="120" height="60" as="geometry" />
        </mxCell>
        <mxCell id="l84vfNKPHoAJJHxE9Hui-36" value="prenotazione" style="html=1;verticalAlign=bottom;endArrow=block;curved=0;rounded=0;entryX=0;entryY=0.25;entryDx=0;entryDy=0;exitX=1;exitY=0.25;exitDx=0;exitDy=0;" edge="1" parent="1" source="l84vfNKPHoAJJHxE9Hui-40" target="l84vfNKPHoAJJHxE9Hui-41">
          <mxGeometry width="80" relative="1" as="geometry">
            <mxPoint x="430" y="869.52" as="sourcePoint" />
            <mxPoint x="540" y="870" as="targetPoint" />
          </mxGeometry>
        </mxCell>
        <mxCell id="l84vfNKPHoAJJHxE9Hui-37" value="modifica libro" style="html=1;verticalAlign=bottom;endArrow=block;curved=0;rounded=0;" edge="1" parent="1" target="l84vfNKPHoAJJHxE9Hui-40">
          <mxGeometry width="80" relative="1" as="geometry">
            <mxPoint x="250" y="800" as="sourcePoint" />
            <mxPoint x="330" y="850" as="targetPoint" />
          </mxGeometry>
        </mxCell>
        <mxCell id="l84vfNKPHoAJJHxE9Hui-38" value="cancellazione" style="html=1;verticalAlign=bottom;endArrow=block;curved=0;rounded=0;exitX=1;exitY=0.5;exitDx=0;exitDy=0;" edge="1" parent="1" source="l84vfNKPHoAJJHxE9Hui-33" target="l84vfNKPHoAJJHxE9Hui-39">
          <mxGeometry width="80" relative="1" as="geometry">
            <mxPoint x="250" y="784.52" as="sourcePoint" />
            <mxPoint x="350" y="785" as="targetPoint" />
          </mxGeometry>
        </mxCell>
        <mxCell id="l84vfNKPHoAJJHxE9Hui-39" value="libro non disponibile" style="rounded=1;whiteSpace=wrap;html=1;" vertex="1" parent="1">
          <mxGeometry x="340" y="755" width="120" height="60" as="geometry" />
        </mxCell>
        <mxCell id="l84vfNKPHoAJJHxE9Hui-40" value="libro modificato disponibile" style="rounded=1;whiteSpace=wrap;html=1;" vertex="1" parent="1">
          <mxGeometry x="330" y="840" width="120" height="60" as="geometry" />
        </mxCell>
        <mxCell id="l84vfNKPHoAJJHxE9Hui-41" value="libro modificato prenotato" style="rounded=1;whiteSpace=wrap;html=1;" vertex="1" parent="1">
          <mxGeometry x="540" y="840" width="120" height="60" as="geometry" />
        </mxCell>
        <mxCell id="l84vfNKPHoAJJHxE9Hui-42" value="aggiunta libro" style="html=1;verticalAlign=bottom;endArrow=block;curved=0;rounded=0;entryX=0.999;entryY=0.123;entryDx=0;entryDy=0;entryPerimeter=0;" edge="1" parent="1" target="l84vfNKPHoAJJHxE9Hui-33">
          <mxGeometry width="80" relative="1" as="geometry">
            <mxPoint x="340" y="762" as="sourcePoint" />
            <mxPoint x="460" y="710" as="targetPoint" />
          </mxGeometry>
        </mxCell>
        <mxCell id="l84vfNKPHoAJJHxE9Hui-44" value="dopo un mese" style="html=1;verticalAlign=bottom;endArrow=block;curved=0;rounded=0;entryX=0.073;entryY=1;entryDx=0;entryDy=0;exitX=0.156;exitY=-0.002;exitDx=0;exitDy=0;exitPerimeter=0;entryPerimeter=0;" edge="1" parent="1" source="l84vfNKPHoAJJHxE9Hui-35" target="l84vfNKPHoAJJHxE9Hui-33">
          <mxGeometry width="80" relative="1" as="geometry">
            <mxPoint x="160" y="850" as="sourcePoint" />
            <mxPoint x="460" y="710" as="targetPoint" />
          </mxGeometry>
        </mxCell>
        <mxCell id="l84vfNKPHoAJJHxE9Hui-45" value="dispatch" style="html=1;verticalAlign=bottom;endArrow=block;curved=0;rounded=0;exitX=0;exitY=0.75;exitDx=0;exitDy=0;entryX=1;entryY=0.75;entryDx=0;entryDy=0;" edge="1" parent="1" source="l84vfNKPHoAJJHxE9Hui-41" target="l84vfNKPHoAJJHxE9Hui-40">
          <mxGeometry width="80" relative="1" as="geometry">
            <mxPoint x="380" y="710" as="sourcePoint" />
            <mxPoint x="460" y="710" as="targetPoint" />
          </mxGeometry>
        </mxCell>
      </root>
    </mxGraphModel>
  </diagram>
</mxfile>
